<svg xmlns="http://www.w3.org/2000/svg" height="40" viewBox="0 96 960 960" width="40"><path d="M440 856q-100.667 0-170.333-69.667Q200 716.667 200 616q0-11 1-22.667 1-11.666 3-21.333-5.333 2-11.667 3Q186 576 180 576q-43.333 0-71.667-28.333Q80 519.333 80 476t27.833-71.667Q135.667 376 179 376q31.667 0 57.833 18.5Q263 413 274 441.333q31.667-28.666 74.833-47Q392 376 440.667 376h406q14.333 0 23.833 9.5 9.5 9.5 9.5 23.833v66.666q0 14.334-9.5 23.834t-23.833 9.5H680V616q0 100.667-69.667 170.333Q540.667 856 440 856ZM180 516q17.667 0 28.833-11.167Q220 493.667 220 476q0-17.667-11.167-28.833Q197.667 436 180 436q-17.667 0-28.833 11.167Q140 458.333 140 476q0 17.667 11.167 28.833Q162.333 516 180 516Zm260 180q33 0 56.5-23.5T520 616q0-33-23.5-56.5T440 536q-33 0-56.5 23.5T360 616q0 33 23.5 56.5T440 696Z"/></svg>