<svg xmlns="http://www.w3.org/2000/svg" height="40" viewBox="0 96 960 960" width="40"><path d="M186.666 936Q159 936 139.5 916.5 120 897 120 869.334V282.666Q120 255 139.5 235.5 159 216 186.666 216h192.668q7.666-35.333 35.833-57.667Q443.333 136 480 136t64.833 22.333Q573 180.667 580.666 216h192.668Q801 216 820.5 235.5 840 255 840 282.666v586.668Q840 897 820.5 916.5 801 936 773.334 936H186.666ZM280 776h275.333v-66.666H280V776Zm0-166.667h400v-66.666H280v66.666Zm0-166.667h400V376H280v66.666Zm200-181.333q13.667 0 23.5-9.833 9.833-9.834 9.833-23.5 0-13.667-9.833-23.5-9.833-9.834-23.5-9.834t-23.5 9.834q-9.833 9.833-9.833 23.5 0 13.666 9.833 23.5 9.833 9.833 23.5 9.833Z"/></svg>