<svg width="24" height="24" viewBox="0 0 24 24" fill="none" xmlns="http://www.w3.org/2000/svg">
<path fill-rule="evenodd" clip-rule="evenodd" d="M3 7C3 5.89543 3.89543 5 5 5H17C17.5523 5 18 5.44772 18 6C18 6.55228 17.5523 7 17 7H5V20H17V14C17 13.4477 17.4477 13 18 13C18.5523 13 19 13.4477 19 14V20C19 21.1046 18.1046 22 17 22H5C3.89543 22 3 21.1046 3 20V7Z" fill="#FFFFFF"/>
<path fill-rule="evenodd" clip-rule="evenodd" d="M20.7071 6.79289C21.0976 7.18342 21.0976 7.81658 20.7071 8.20711L15.2071 13.7071C14.8166 14.0976 14.1834 14.0976 13.7929 13.7071C13.4024 13.3166 13.4024 12.6834 13.7929 12.2929L19.2929 6.79289C19.6834 6.40237 20.3166 6.40237 20.7071 6.79289Z" fill="#FFFFFF"/>
<path fill-rule="evenodd" clip-rule="evenodd" d="M7 10C7 9.44772 7.44772 9 8 9H12C12.5523 9 13 9.44772 13 10C13 10.5523 12.5523 11 12 11H8C7.44772 11 7 10.5523 7 10Z" fill="#FFFFFF"/>
<path fill-rule="evenodd" clip-rule="evenodd" d="M7 14C7 13.4477 7.44772 13 8 13H10C10.5523 13 11 13.4477 11 14C11 14.5523 10.5523 15 10 15H8C7.44772 15 7 14.5523 7 14Z" fill="#FFFFFF"/>
<path fill-rule="evenodd" clip-rule="evenodd" d="M11 4C9.89543 4 9 4.89543 9 6H7C7 3.79086 8.79086 2 11 2C13.2091 2 15 3.79086 15 6H13C13 4.89543 12.1046 4 11 4Z" fill="#FFFFFF"/>
</svg>
